<svg xmlns="http://www.w3.org/2000/svg" width="42.053" height="49.699" viewBox="0 0 42.053 49.699">
  <g id="document" transform="translate(-36)">
    <path id="Path_5568" data-name="Path 5568" d="M288.621,30.633H294.2l-5.582-6.348Z" transform="translate(-225.794 -21.706)" fill="#0d3a8f"/>
    <g id="Group_10634" data-name="Group 10634" transform="translate(36 0)">
      <path id="Path_5569" data-name="Path 5569" d="M68.748,20.869a12.554,12.554,0,0,1,1.571.1v-8.9H61.2a1.491,1.491,0,0,1-1.511-1.534V0H36.121A.121.121,0,0,0,36,.121V49.579a.121.121,0,0,0,.121.121H70.2a.121.121,0,0,0,.121-.121V45.62A12.458,12.458,0,0,1,56.4,34.862H41.317V31.725H56.4A12.458,12.458,0,0,1,68.748,20.869Zm-11.722,19.3v3.136H41.317V40.169ZM41.317,6.393H54.368V9.53H41.317Zm0,8.444H65.244v3.136H41.317Zm15.71,11.58H41.317V23.281h15.71Z" transform="translate(-36 0)" fill="#0670f4"/>
      <path id="Path_5570" data-name="Path 5570" d="M266.063,226.049a9.288,9.288,0,1,0,9.3,9.288A9.307,9.307,0,0,0,266.063,226.049Zm-.152,13.594a1.589,1.589,0,0,1-2.063.206l-3.6-2.571,1.827-2.551,2.48,1.77,5.212-5.581,2.3,2.139Z" transform="translate(-233.315 -202.044)" fill="#0d3a8f"/>
    </g>
  </g>
</svg>
