<svg xmlns="http://www.w3.org/2000/svg" width="81.333" height="81.333" viewBox="0 0 81.333 81.333">
  <g id="help" transform="translate(0 0)">
    <path id="Path_5571" data-name="Path 5571" d="M58.291,67.321a6.5,6.5,0,0,0,1.184-5.579l-5.12-20.476H49.6a10.32,10.32,0,0,1,0-20.639h5.9A5.551,5.551,0,0,0,51.732,17.4L28.17,11.509,17.359.7a2.383,2.383,0,0,0-3.37,0L.7,13.989a2.383,2.383,0,0,0,0,3.37l7.815,7.815a10.317,10.317,0,0,1,8.55-4.547h6.03a10.321,10.321,0,0,1,9.717,13.8,10.312,10.312,0,0,1,2.777,11.108,10.312,10.312,0,0,1,2.777,11.108,10.3,10.3,0,0,1,1.751,13.185h13.05a6.508,6.508,0,0,0,5.127-2.5Z" transform="translate(0 0)" fill="#0d3a8f"/>
    <path id="Path_5572" data-name="Path 5572" d="M313.855,198.432l-10.811-10.811-5.89-23.565a5.554,5.554,0,0,0-5.387-4.205h-8.949a5.554,5.554,0,0,0,0,11.108h6.617a2.383,2.383,0,0,1,2.312,1.8l5.572,22.28a11.29,11.29,0,0,1-6.907,13.266l6.783,6.783a2.383,2.383,0,0,0,3.37,0L313.855,201.8A2.383,2.383,0,0,0,313.855,198.432Z" transform="translate(-233.22 -134.458)" fill="#0670f4"/>
    <path id="Path_5573" data-name="Path 5573" d="M92.364,193.176H89.587a5.554,5.554,0,1,0,0-11.108H86.81a5.554,5.554,0,1,0,0-11.108H84.033a5.554,5.554,0,0,0,0-11.108H78a5.554,5.554,0,0,0,0,11.108H80.78a5.554,5.554,0,1,0,0,11.108h2.777a5.554,5.554,0,1,0,0,11.108h2.777a5.554,5.554,0,1,0,0,11.108h6.03a5.554,5.554,0,1,0,0-11.108Z" transform="translate(-60.941 -134.46)" fill="#0670f4"/>
  </g>
</svg>
