<svg xmlns="http://www.w3.org/2000/svg" width="86.855" height="86.855" viewBox="0 0 86.855 86.855">
  <g id="implementation" transform="translate(-1 -1)">
    <path id="Path_5579" data-name="Path 5579" d="M4.572,36.084H13.93V31.167a.714.714,0,0,1,1.051-.63l1.905,1.023a1.737,1.737,0,0,0,1.765,0,2.255,2.255,0,0,0,0-3.782,1.737,1.737,0,0,0-1.765,0l-1.877.939a.7.7,0,0,1-1.051-.63V23.154H9a.714.714,0,0,1-.616-.35.728.728,0,0,1,0-.7L9.405,20.2a1.737,1.737,0,0,0,0-1.765A2.129,2.129,0,0,0,7.528,17.41a2.143,2.143,0,0,0-1.905,1.023,1.737,1.737,0,0,0,0,1.765L6.6,22.1a.728.728,0,0,1,0,.7.714.714,0,0,1-.616.35H1a27.864,27.864,0,0,0,3.572,12.93Z" transform="translate(0 6.578)" fill="#0670f4"/>
    <path id="Path_5580" data-name="Path 5580" d="M1,24.19H4.712L4.25,23.35a3.25,3.25,0,0,1,.084-3.194,3.572,3.572,0,0,1,3.11-1.723,3.586,3.586,0,0,1,3.138,1.723,3.25,3.25,0,0,1,.084,3.194l-.462.841H13.93V19.3a.7.7,0,0,1,1.051-.63l1.905,1.023a1.737,1.737,0,0,0,1.765,0,2.255,2.255,0,0,0,0-3.782,1.737,1.737,0,0,0-1.765,0l-1.877.9a.728.728,0,0,1-.7,0,.7.7,0,0,1-.35-.616V11.26H4.572A27.864,27.864,0,0,0,1,24.19Z" transform="translate(0 4.113)" fill="#0670f4"/>
    <path id="Path_5581" data-name="Path 5581" d="M12.28,3.8v8.7H17.2a.7.7,0,0,1,.616.35.658.658,0,0,1,0,.7l-1.023,1.905a1.807,1.807,0,0,0,0,1.765,2.269,2.269,0,0,0,3.8,0,1.737,1.737,0,0,0,0-1.765l-.925-1.849a.714.714,0,0,1,.63-1.107H25.21V8.775l-.841.448a3.18,3.18,0,0,1-3.18,0,3.572,3.572,0,0,1-1.723-3.18A3.586,3.586,0,0,1,21.19,2.905a3.18,3.18,0,0,1,3.18,0l.841.448V1H24.5A27.654,27.654,0,0,0,12.28,3.8Z" transform="translate(4.522 0)" fill="#0670f4"/>
    <path id="Path_5582" data-name="Path 5582" d="M29.1,34.434H24.182v4.931a.742.742,0,0,1-.35.616.756.756,0,0,1-.714,0l-1.891-1.051a1.765,1.765,0,0,0-1.779,0,2.283,2.283,0,0,0,0,3.782,1.765,1.765,0,0,0,1.779,0l1.891-1.023a.756.756,0,0,1,.308.042h0a.827.827,0,0,1,.364.1.742.742,0,0,1,.35.616v3.376a28.018,28.018,0,0,0,12.93-4.315V34.434H32.2a.714.714,0,0,1-.63-1.051l1.023-1.905a1.737,1.737,0,0,0,0-1.765,2.273,2.273,0,0,0-3.8,0,1.807,1.807,0,0,0,0,1.765l.939,1.849a.658.658,0,0,1,0,.7A.7.7,0,0,1,29.1,34.434Z" transform="translate(6.993 11.1)" fill="#0670f4"/>
    <path id="Path_5583" data-name="Path 5583" d="M32.2,12.469h4.917V5.395A28.018,28.018,0,0,0,24.184,1.08V4.456a.742.742,0,0,1-.35.616.756.756,0,0,1-.714,0L21.228,4.05a1.765,1.765,0,0,0-1.779,0A2.143,2.143,0,0,0,18.44,5.927a2.157,2.157,0,0,0,1.009,1.905,1.765,1.765,0,0,0,1.779,0L23.119,6.81a.756.756,0,0,1,.714,0,.742.742,0,0,1,.35.616v5.043H29.1a.7.7,0,0,1,.616.35.658.658,0,0,1,0,.7l-1.023,1.905a1.807,1.807,0,0,0,0,1.765,2.269,2.269,0,0,0,3.8,0,1.737,1.737,0,0,0,0-1.765l-.925-1.849a.714.714,0,0,1,.63-1.051Z" transform="translate(6.991 0.032)" fill="#0670f4"/>
    <path id="Path_5584" data-name="Path 5584" d="M17.2,34.434H12.28v8.7a27.653,27.653,0,0,0,12.216,2.8h.714V43.652l-.841.448a3.18,3.18,0,0,1-3.18,0,3.7,3.7,0,0,1,0-6.248,3.18,3.18,0,0,1,3.18,0l.841.448V34.434H20.293a.714.714,0,0,1-.63-1.051l1.023-1.905a1.737,1.737,0,0,0,0-1.765,2.273,2.273,0,0,0-3.8,0,1.807,1.807,0,0,0,0,1.765l.939,1.849a.658.658,0,0,1,0,.7A.7.7,0,0,1,17.2,34.434Z" transform="translate(4.522 11.1)" fill="#0670f4"/>
    <path id="Path_5585" data-name="Path 5585" d="M41.241,20.947a10.084,10.084,0,0,0-.084-1.6,4.2,4.2,0,0,1-.294.756l-.462.841Z" transform="translate(15.795 7.356)"/>
    <path id="Path_5586" data-name="Path 5586" d="M4.16,12.908h9.218a.714.714,0,0,1,.714.714v4.441l.841-.448a3.208,3.208,0,0,1,3.194.07,3.7,3.7,0,0,1,0,6.248,3.208,3.208,0,0,1-3.194.084l-.841-.462v8.882l.841-.462a3.25,3.25,0,0,1,3.194.084,3.7,3.7,0,0,1,0,6.248,3.208,3.208,0,0,1-3.194.07l-.841-.448v4.441a.714.714,0,0,1-.714.714H4.16a28.018,28.018,0,0,0,9.932,9.358V43.8a.714.714,0,0,1,.728-.714h4.427l-.448-.841a3.208,3.208,0,0,1,.07-3.194,3.726,3.726,0,0,1,6.262,0,3.208,3.208,0,0,1,.07,3.194l-.448.841h8.868l-.448-.841a3.208,3.208,0,0,1,.07-3.194,3.726,3.726,0,0,1,6.262,0,3.208,3.208,0,0,1,.07,3.194l-.448.841h4.441a.714.714,0,0,1,.714.714v6.808a28.452,28.452,0,0,0,7-7.523H45a.714.714,0,0,1-.714-.714V37.928l-.841.448a3.208,3.208,0,0,1-3.194-.07,3.7,3.7,0,0,1,0-6.248,3.25,3.25,0,0,1,3.194-.084l.841.462V23.555l-.841.462a3.208,3.208,0,0,1-3.194-.084,3.7,3.7,0,0,1,0-6.248,3.208,3.208,0,0,1,3.194-.07l.841.448V13.622A.714.714,0,0,1,45,12.908h6.346a28.452,28.452,0,0,0-7-7.523v6.808a.714.714,0,0,1-.714.714h-4.5l.448.841a3.208,3.208,0,0,1-.07,3.194,3.726,3.726,0,0,1-6.262,0,3.208,3.208,0,0,1-.07-3.194l.448-.841H24.753l.448.841a3.208,3.208,0,0,1-.07,3.194,3.726,3.726,0,0,1-6.262,0,3.208,3.208,0,0,1-.07-3.194l.448-.841H14.821a.714.714,0,0,1-.728-.714V3.55A28.018,28.018,0,0,0,4.16,12.908Z" transform="translate(1.267 1.022)" fill="#0670f4"/>
    <path id="Path_5587" data-name="Path 5587" d="M35.465,11.292v4.917a.7.7,0,0,1-.35.616.728.728,0,0,1-.7,0L32.509,15.8a1.737,1.737,0,0,0-1.765,0,2.255,2.255,0,0,0,0,3.782,1.737,1.737,0,0,0,1.765,0l1.905-1.023a.7.7,0,0,1,1.051.63V24.11h3.726l-.448-.841a3.208,3.208,0,0,1,.07-3.194,3.572,3.572,0,0,1,3.11-1.723,3.614,3.614,0,0,1,3.152,1.723.658.658,0,0,0,0,.14,28.018,28.018,0,0,0-3.194-9.036Z" transform="translate(11.512 4.081)" fill="#0670f4"/>
    <path id="Path_5588" data-name="Path 5588" d="M71.024,39.015h-4.2l-2.8,5.6-2.8-5.6h-5.6L50.739,34.14a27.752,27.752,0,0,0,2.073-10.535h-2.69l.995-1.849A2.606,2.606,0,0,0,48.61,18h0a2.606,2.606,0,0,0-2.494,3.754l.981,1.849H41.605V29.1L39.756,28.1A2.606,2.606,0,0,0,36,30.61h0A2.606,2.606,0,0,0,39.756,33.1l1.849-.981v5.491h6.3l6.3,8.405V57.226h2.8l1.4,23.815H69.623l1.4-23.815h2.8V41.817A2.8,2.8,0,0,0,71.024,39.015Z" transform="translate(14.029 6.813)" fill="#113c8c"/>
    <circle id="Ellipse_200" data-name="Ellipse 200" cx="5.5" cy="5.5" r="5.5" transform="translate(72.537 33.537)" fill="#113c8c"/>
  </g>
</svg>
