<svg id="website" xmlns="http://www.w3.org/2000/svg" width="70.22" height="70.22" viewBox="0 0 70.22 70.22">
  <path id="Path_5574" data-name="Path 5574" d="M62.655,0H7.566A7.574,7.574,0,0,0,0,7.566V62.655A7.574,7.574,0,0,0,7.566,70.22H62.655a7.574,7.574,0,0,0,7.566-7.566V7.566A7.574,7.574,0,0,0,62.655,0ZM55.69,11.62a2.057,2.057,0,1,1-.6,1.455A2.073,2.073,0,0,1,55.69,11.62Zm-11.017,0a2.057,2.057,0,1,1-.6,1.455A2.071,2.071,0,0,1,44.673,11.62Zm-11.017,0a2.055,2.055,0,1,1-.6,1.455A2.071,2.071,0,0,1,33.656,11.62Zm-20.58-.6H24.093a2.057,2.057,0,0,1,0,4.114H13.075a2.057,2.057,0,0,1,0-4.114ZM66.106,62.655a3.455,3.455,0,0,1-3.451,3.451H7.566a3.455,3.455,0,0,1-3.452-3.451V26.15H66.106Zm0,0" fill="#0670f4"/>
  <path id="Path_5575" data-name="Path 5575" d="M82.393,405.782h44.07a2.057,2.057,0,1,0,0-4.114H82.393a2.057,2.057,0,1,0,0,4.114Zm0,0" transform="translate(-69.318 -346.58)" fill="#0d3a8f"/>
  <path id="Path_5576" data-name="Path 5576" d="M87.9,256.132a7.566,7.566,0,1,0-7.566-7.566A7.575,7.575,0,0,0,87.9,256.132Zm0,0" transform="translate(-69.318 -207.947)" fill="#0d3a8f"/>
  <path id="Path_5577" data-name="Path 5577" d="M243.057,245.114h22.035a2.057,2.057,0,0,0,0-4.114H243.057a2.057,2.057,0,0,0,0,4.114Zm0,0" transform="translate(-207.947 -207.947)" fill="#0d3a8f"/>
  <path id="Path_5578" data-name="Path 5578" d="M243.057,325.45h22.035a2.057,2.057,0,0,0,0-4.114H243.057a2.057,2.057,0,1,0,0,4.114Zm0,0" transform="translate(-207.947 -277.265)" fill="#0d3a8f"/>
</svg>
